<svg width="101" height="38" viewBox="0 0 101 38" fill="none" xmlns="http://www.w3.org/2000/svg">
<g clip-path="url(#clip0_93_1418)">
<path d="M44.223 18.7588L41.0821 17.8265C40.7021 17.7059 40.309 17.5592 39.903 17.38C39.497 17.2007 39.1527 16.9399 38.8669 16.5912C38.581 16.2456 38.4381 15.8089 38.4381 15.2841C38.4381 14.5213 38.724 13.8988 39.2956 13.4229C39.8673 12.947 40.6403 12.7058 41.6148 12.7058C42.6867 12.7058 43.6481 12.9926 44.5056 13.5663C45.2657 14.0748 45.8536 14.7495 46.2791 15.5937C46.3733 15.7795 46.5974 15.8545 46.7825 15.7665L48.8093 14.8277C48.9977 14.7397 49.0887 14.5213 49.0075 14.329C48.4261 12.9404 47.5133 11.8517 46.2693 11.0564C44.9246 10.1959 43.4077 9.76562 41.7187 9.76562C40.4585 9.76562 39.3216 10.0036 38.3115 10.4827C37.3013 10.9619 36.5023 11.6236 35.9208 12.4711C35.3362 13.3186 35.0471 14.316 35.0471 15.4601C35.0471 16.702 35.4466 17.7939 36.2424 18.7359C37.0382 19.678 38.2952 20.3885 40.007 20.8677L42.8978 21.6924C43.3006 21.7869 43.7228 21.9368 44.1645 22.1389C44.603 22.341 44.9863 22.6181 45.3079 22.9636C45.6294 23.3091 45.7886 23.7687 45.7886 24.3424C45.7886 25.154 45.4443 25.8092 44.7525 26.3112C44.0606 26.8131 43.2064 27.0641 42.1832 27.0641C41.0171 27.0641 39.9582 26.7284 39.0065 26.0602C38.149 25.4572 37.4572 24.6651 36.9278 23.6742C36.8303 23.4884 36.6062 23.4102 36.4178 23.5014L34.4105 24.4695C34.2253 24.5575 34.1376 24.7792 34.2188 24.9682C34.8457 26.4318 35.8234 27.6085 37.1486 28.4951C38.5746 29.4501 40.2538 29.926 42.18 29.926C43.5604 29.926 44.7719 29.6881 45.8211 29.2089C46.867 28.733 47.6887 28.0616 48.2831 27.2043C48.8776 26.3438 49.1764 25.3789 49.1764 24.3033C49.1764 22.9669 48.7411 21.8195 47.8739 20.8644C47.0066 19.9094 45.7854 19.2053 44.2165 18.7522L44.223 18.7588Z" fill="grey"/>
<path d="M54.3279 5.48584H51.7457C51.5322 5.48584 51.3591 5.6595 51.3591 5.87373V29.1144C51.3591 29.3286 51.5322 29.5023 51.7457 29.5023H54.3279C54.5414 29.5023 54.7144 29.3286 54.7144 29.1144V5.87373C54.7144 5.6595 54.5414 5.48584 54.3279 5.48584Z" fill="grey"/>
<path d="M60.6455 10.978H58.0632C57.8497 10.978 57.6767 11.1517 57.6767 11.3659V29.1175C57.6767 29.3317 57.8497 29.5054 58.0632 29.5054H60.6455C60.8589 29.5054 61.032 29.3317 61.032 29.1175V11.3659C61.032 11.1517 60.8589 10.978 60.6455 10.978Z" fill="grey"/>
<path d="M80.8715 24.5772L78.5815 23.4136C78.3964 23.3191 78.1625 23.3875 78.0683 23.5733C77.6006 24.4697 76.9607 25.1966 76.1455 25.7605C75.2295 26.3928 74.1641 26.709 72.9526 26.709C71.741 26.709 70.7341 26.4091 69.7954 25.8126C68.8567 25.2161 68.1129 24.398 67.564 23.3582C67.015 22.3184 66.7422 21.1547 66.7422 19.8672C66.7422 18.5796 67.015 17.3769 67.564 16.3403C68.1096 15.3005 68.8535 14.4889 69.7954 13.9054C70.7341 13.322 71.7865 13.0286 72.9526 13.0286C74.1186 13.0286 75.236 13.3383 76.165 13.9608C76.99 14.5117 77.6234 15.2223 78.0748 16.0959C78.169 16.2817 78.3996 16.3534 78.588 16.2588L80.8747 15.1245C81.0664 15.03 81.1411 14.8018 81.0534 14.6095C80.6701 13.7522 80.1114 12.9797 79.3806 12.2952C78.5491 11.5194 77.5844 10.9034 76.4898 10.4503C75.3952 9.99721 74.2161 9.76904 72.9558 9.76904C71.0524 9.76904 69.3699 10.2123 67.905 11.0957C66.4434 11.979 65.2935 13.172 64.462 14.6779C63.6305 16.1806 63.2115 17.9017 63.2115 19.8346C63.2115 21.7675 63.6337 23.4625 64.4782 24.9912C65.3228 26.5199 66.4693 27.726 67.9212 28.6093C69.3732 29.4927 71.0492 29.936 72.9526 29.936C74.2128 29.936 75.3919 29.7078 76.4865 29.2547C77.5811 28.8016 78.5426 28.1856 79.3773 27.4098C80.1114 26.7253 80.6701 25.9528 81.0534 25.0923C81.1378 24.8999 81.0663 24.6718 80.878 24.5772H80.8715Z" fill="grey"/>
<path d="M100.376 15.5903C99.9606 14.4788 99.3662 13.4911 98.5931 12.6176C97.8201 11.7473 96.8814 11.053 95.7738 10.5412C94.6661 10.0295 93.3994 9.77197 91.9735 9.77197C90.1903 9.77197 88.5954 10.2088 87.1922 11.0791C85.7891 11.9494 84.6717 13.1391 83.8369 14.6418C83.0054 16.1444 82.5864 17.8655 82.5864 19.7984C82.5864 21.7313 83.0022 23.4328 83.8369 24.9746C84.6685 26.5131 85.8183 27.7257 87.2799 28.609C88.7416 29.4923 90.4014 29.9356 92.2593 29.9356C93.5683 29.9356 94.7701 29.7205 95.8647 29.2902C96.9593 28.86 97.9045 28.283 98.7003 27.5529C99.3889 26.9238 99.9216 26.2393 100.298 25.4961C100.396 25.3005 100.328 25.0626 100.133 24.9648L97.9987 23.8663C97.8201 23.7751 97.6024 23.837 97.492 24.0065C96.9723 24.8018 96.3227 25.4635 95.5399 25.9948C94.6597 26.5913 93.578 26.8912 92.2918 26.8912C91.1257 26.8912 90.0506 26.5978 89.0632 26.0144C88.0757 25.4309 87.3157 24.6062 86.7797 23.5436C86.3802 22.7516 86.1561 21.8617 86.1074 20.874H100.487C100.678 20.874 100.844 20.7306 100.873 20.5416C100.903 20.3427 100.925 20.1439 100.948 19.9451C100.984 19.6354 101 19.3355 101 19.0487C101 17.8557 100.792 16.7018 100.376 15.5936V15.5903ZM88.9008 13.6215C89.8297 13.0381 90.8496 12.7447 91.9702 12.7447C93.0908 12.7447 94.088 13.0315 94.9682 13.6052C95.8485 14.1789 96.5143 14.9547 96.9658 15.9325C97.2549 16.5584 97.4011 17.2396 97.4076 17.973H86.1788C86.2763 17.282 86.4614 16.6464 86.7408 16.076C87.2507 15.0264 87.9718 14.2082 88.9008 13.6215Z" fill="grey"/>
<path d="M59.3527 9.64524C60.5044 9.64524 61.438 8.70833 61.438 7.5526C61.438 6.39687 60.5044 5.45996 59.3527 5.45996C58.2011 5.45996 57.2675 6.39687 57.2675 7.5526C57.2675 8.70833 58.2011 9.64524 59.3527 9.64524Z" fill="grey"/>
<path d="M10.0757 25.1733L5.3724 35.353C4.73577 36.7285 5.92133 38.2507 7.40571 37.9639L20.593 35.4149L10.0757 25.1733Z" fill="url(#paint0_linear_93_1418)"/>
<path d="M5.68097 1.88041L18.5532 0.0192039C20.0084 -0.192668 21.1192 1.30347 20.4988 2.64315L16.1464 12.0666L5.68097 1.88041Z" fill="url(#paint1_linear_93_1418)"/>
<path d="M5.68094 1.88037L0.181887 13.7778C-0.168909 14.5373 -0.0032554 15.4369 0.594397 16.0204L20.5898 35.4148L26.1083 23.488C26.4591 22.7285 26.2934 21.8256 25.6925 21.2422L5.68094 1.88037Z" fill="white"/>
</g>
<defs>
<linearGradient id="paint0_linear_93_1418" x1="8.2015" y1="34.1469" x2="15.9724" y2="29.3314" gradientUnits="userSpaceOnUse">
<stop stop-color="grey"/>
<stop offset="1" stop-color="black" stop-opacity="0.5"/>
</linearGradient>
<linearGradient id="paint1_linear_93_1418" x1="19.323" y1="0.266931" x2="9.66291" y2="7.9166" gradientUnits="userSpaceOnUse">
<stop stop-color="grey"/>
<stop offset="1" stop-color="black" stop-opacity="0.5"/>
</linearGradient>
<clipPath id="clip0_93_1418">
<rect width="101" height="38" fill="grey"/>
</clipPath>
</defs>
</svg>
